<svg xmlns="http://www.w3.org/2000/svg" width="512" height="512" viewBox="0 0 2138.327 2138.327"><path xmlns="http://www.w3.org/2000/svg" d="M1032.925 1852.654c0 98.076-79.506 177.583-177.583 177.583S677.76 1950.73 677.76 1852.654s79.506-177.583 177.583-177.583 177.582 79.507 177.582 177.583zm541.462-177.582c-98.076 0-177.583 79.507-177.583 177.583s79.507 177.583 177.583 177.583 177.583-79.507 177.583-177.583c-.001-98.077-79.507-177.583-177.583-177.583zm551.232-833.649l-218.512 649.464s-18.088 96.383-110.247 96.383H693.471c-109.982 0-114.604-120.809-114.604-120.809S461.624 596.637 455.814 544.088s-73.013-91.498-73.013-91.498L93.651 317.522c-158.306-82.784-86.349-240.298 0-204.121 366.652 172.961 536.973 258.122 547.932 326.25 11.091 68.26 30.367 232.64 30.367 232.64v1.056c2.245-.66 3.829-1.056 3.829-1.056h1351.477c163.191 0 98.363 169.397 98.363 169.132zm-316.084 361.635l-2.245.132H737.57L759.619 1378h997.896l52.02-174.942zm104.173-352.524H693.339l23.502 186.825h1141.678l55.189-186.825z" fill="#faaf52" data-original="#090509"/></svg>