<svg xmlns="http://www.w3.org/2000/svg" width="512" height="512" viewBox="0 0 58 58"><g fill="#fff" xmlns="http://www.w3.org/2000/svg"><path d="M24.017 33.983c-5.536-5.536-6.786-11.072-7.068-13.29a1.988 1.988 0 01.571-1.664L22 14.551a2 2 0 00.282-2.475L15.149 1a2 2 0 00-2.591-.729L1.107 5.664a1.989 1.989 0 00-1.1 1.987c.6 5.7 3.085 19.712 16.855 33.483s27.78 16.255 33.483 16.855a1.989 1.989 0 001.987-1.1l5.393-11.451A2 2 0 0057 42.851L45.924 35.72a2 2 0 00-2.475.28l-4.478 4.48c-.436.439-1.05.65-1.664.571-2.218-.282-7.754-1.532-13.29-7.068z" data-original="#000000"/><path d="M46 31a2 2 0 01-2-2c-.01-8.28-6.72-14.99-15-15a2 2 0 110-4c10.489.012 18.988 8.511 19 19a2 2 0 01-2 2z" data-original="#000000"/><path d="M56 31a2 2 0 01-2-2C53.985 15.2 42.8 4.015 29 4a2 2 0 110-4c16.009.018 28.982 12.991 29 29a2 2 0 01-2 2z" data-original="#000000"/></g></svg>